<?xml version="1.0" encoding="UTF-8" standalone="no"?>
<!-- Generator: Adobe Illustrator 22.0.1, SVG Export Plug-In . SVG Version: 6.00 Build 0)  -->

<svg
   xmlns:dc="http://purl.org/dc/elements/1.1/"
   xmlns:cc="http://creativecommons.org/ns#"
   xmlns:rdf="http://www.w3.org/1999/02/22-rdf-syntax-ns#"
   xmlns:svg="http://www.w3.org/2000/svg"
   xmlns="http://www.w3.org/2000/svg"
   xmlns:sodipodi="http://sodipodi.sourceforge.net/DTD/sodipodi-0.dtd"
   xmlns:inkscape="http://www.inkscape.org/namespaces/inkscape"
   version="1.1"
   id="Ebene_1"
   x="0px"
   y="0px"
   viewBox="0 0 439.70802 71.507006"
   xml:space="preserve"
   sodipodi:docname="logocc-neu.svg"
   width="439.70801"
   height="71.507004"
   inkscape:version="0.92.1 r15371"><metadata
     id="metadata101"><rdf:RDF><cc:Work
         rdf:about=""><dc:format>image/svg+xml</dc:format><dc:type
           rdf:resource="http://purl.org/dc/dcmitype/StillImage" /><dc:title></dc:title></cc:Work></rdf:RDF></metadata><defs
     id="defs99" /><sodipodi:namedview
     pagecolor="#ffffff"
     bordercolor="#666666"
     borderopacity="1"
     objecttolerance="10"
     gridtolerance="10"
     guidetolerance="10"
     inkscape:pageopacity="0"
     inkscape:pageshadow="2"
     inkscape:window-width="1920"
     inkscape:window-height="1028"
     id="namedview97"
     showgrid="false"
     inkscape:zoom="9.4194429"
     inkscape:cx="192.74643"
     inkscape:cy="37.101425"
     inkscape:window-x="-8"
     inkscape:window-y="-8"
     inkscape:window-maximized="1"
     inkscape:current-layer="Ebene_1" /><style
     type="text/css"
     id="style2">
	.st0{fill:#C6A558;}
	.st1{fill:#005192;}
</style><g
     id="g18"
     transform="matrix(1.5498249,0,0,1.5498249,0,-183.78217)"><path
       class="st0"
       d="m 124.95,131.94 1.77,3.68 4.05,0.53 -2.96,2.82 0.74,4.02 -3.6,-1.94 -3.59,1.95 0.74,-4.02 -2.96,-2.81 4.05,-0.54 z m -8.28,-3.4 2.97,1.02 -1.07,-2.95 1.88,-2.51 -3.14,0.11 -1.81,-2.57 -0.87,3.02 -3,0.92 2.6,1.76 -0.05,3.14 z m -12.1,-5.43 2.29,0.15 -1.32,-1.88 0.86,-2.13 -2.2,0.67 -1.76,-1.48 -0.04,2.3 -1.95,1.22 2.17,0.75 0.56,2.23 z m -10.92,0.76 1.66,-0.4 -1.36,-1.04 0.13,-1.71 -1.41,0.97 -1.58,-0.65 0.48,1.64 -1.11,1.3 1.71,0.05 0.9,1.46 z m -8.88,4.42 -0.57,1.04 1.17,-0.21 0.82,0.86 0.16,-1.18 1.07,-0.51 -1.07,-0.52 -0.15,-1.18 -0.82,0.86 -1.17,-0.22 z"
       id="path4"
       inkscape:connector-curvature="0"
       style="fill:#c6a558" /><g
       id="g16"><path
         class="st1"
         d="m 17.01,141.74 c -1.13,-0.93 -3.48,-2.82 -6.83,-2.82 -4.25,0 -6.73,2.98 -6.73,5.77 0,2.55 2.19,5.57 7.13,5.57 3.05,0 5.77,-1.33 7.2,-2.42 l 1.56,3.18 c -2.42,1.79 -6.14,2.69 -8.79,2.69 -5.77,0 -10.55,-3.15 -10.55,-9.12 0,-6.07 5.57,-9.12 10.35,-9.12 4.44,0 6.87,1.96 8.69,3.25 z"
         id="path6"
         inkscape:connector-curvature="0"
         style="fill:#005192" /><path
         class="st1"
         d="m 31.37,136 v 6.5 h 9.22 V 136 h 3.45 v 17.18 h -3.45 v -7.23 h -9.22 v 7.23 H 27.92 V 136 Z"
         id="path8"
         inkscape:connector-curvature="0"
         style="fill:#005192" /><path
         class="st1"
         d="m 69.64,136 v 3.45 H 57.83 v 3.12 h 6.24 v 3.45 h -6.24 v 3.71 h 12.21 v 3.45 H 54.38 V 136 Z"
         id="path10"
         inkscape:connector-curvature="0"
         style="fill:#005192" /><path
         class="st1"
         d="M 82.04,153.18 H 78.59 V 136 h 15.26 v 3.45 H 82.04 v 3.12 h 6.24 v 3.45 h -6.24 z"
         id="path12"
         inkscape:connector-curvature="0"
         style="fill:#005192" /><path
         class="st1"
         d="m 100.11,147.64 c 2.98,1.92 5.84,2.62 8.86,2.62 1.72,0 4.64,-0.43 4.64,-2.36 0,-1.39 -1.53,-1.76 -2.59,-1.79 l -5.14,-0.17 c -4.21,-0.1 -6.27,-2.55 -6.27,-5.21 0,-2.55 1.89,-5.27 8.06,-5.27 4.51,0 7.26,1.72 8.29,2.25 l -1.56,3.05 c -1.36,-0.7 -3.85,-1.86 -7.26,-1.86 -1.82,0 -4.08,0.4 -4.08,1.92 0,1.33 1.89,1.66 3.05,1.66 l 4.48,0.17 c 3.95,0.1 6.47,1.79 6.47,5.41 0,3.08 -2.42,5.64 -8.09,5.64 -4.64,0 -8.06,-1.16 -10.45,-2.99 z"
         id="path14"
         inkscape:connector-curvature="0"
         style="fill:#005192" /></g></g><g
     id="g82"
     transform="matrix(1.5498249,0,0,1.5498249,0.53081696,-184.10066)"><g
       id="g38"><g
         id="g36"><g
           id="g34"><path
             class="st1"
             d="m 149.33,141.71 c -1.13,-0.93 -3.48,-2.82 -6.83,-2.82 -4.24,0 -6.73,2.98 -6.73,5.77 0,2.55 2.19,5.57 7.13,5.57 3.05,0 5.77,-1.33 7.2,-2.42 l 1.56,3.18 c -2.42,1.79 -6.13,2.68 -8.79,2.68 -5.77,0 -10.54,-3.15 -10.54,-9.12 0,-6.07 5.57,-9.12 10.35,-9.12 4.44,0 6.86,1.96 8.69,3.25 z"
             id="path20"
             inkscape:connector-curvature="0"
             style="fill:#005192" /><path
             class="st1"
             d="m 162.62,135.97 v 10.45 c 0,2.05 0.53,3.81 4.84,3.81 4.58,0 4.84,-1.96 4.84,-3.81 v -10.45 h 3.45 v 10.45 c 0,3.61 -1.73,7.26 -8.32,7.26 -5.97,0 -8.26,-3.18 -8.26,-7.26 v -10.45 z"
             id="path22"
             inkscape:connector-curvature="0"
             style="fill:#005192" /><path
             class="st1"
             d="m 187.65,135.97 v 13.73 h 9.88 v 3.45 H 184.2 v -17.18 z"
             id="path24"
             inkscape:connector-curvature="0"
             style="fill:#005192" /><path
             class="st1"
             d="m 207.84,135.97 v 17.18 h -3.45 v -17.18 z"
             id="path26"
             inkscape:connector-curvature="0"
             style="fill:#005192" /><path
             class="st1"
             d="m 217.62,135.97 h 3.45 l 9.42,11.61 h 0.07 V 135.97 H 234 v 17.18 h -3.45 l -9.42,-11.6 h -0.07 v 11.6 h -3.45 v -17.18 z"
             id="path28"
             inkscape:connector-curvature="0"
             style="fill:#005192" /><path
             class="st1"
             d="m 247.99,135.97 h 4.58 l 8.42,17.18 h -3.91 l -1.72,-3.61 H 245.3 l -1.72,3.61 h -3.91 z m -1,10.11 h 6.63 l -3.32,-6.76 z"
             id="path30"
             inkscape:connector-curvature="0"
             style="fill:#005192" /><path
             class="st1"
             d="m 276.76,135.97 c 3.18,0 6.2,1.19 6.2,5.07 0,3.28 -2.22,4.47 -3.85,5.07 l 4.34,7.03 h -4.34 l -4.34,-7 h -5.5 v 7 h -3.45 v -17.18 h 10.94 z m -7.49,3.45 v 3.28 h 7.49 c 1.03,0 2.75,-0.13 2.75,-1.66 0,-1.59 -1.56,-1.63 -2.75,-1.63 h -7.49 z"
             id="path32"
             inkscape:connector-curvature="0"
             style="fill:#005192" /></g></g></g><g
       id="g80"><g
         id="g78"><path
           class="st1"
           d="m 133.21,160.01 h 1.1 l 1.09,3.75 h 0.01 l 1.2,-3.75 h 1.06 l 1.21,3.75 h 0.01 l 1.11,-3.75 h 1.06 l -1.63,4.84 h -1.1 l -1.2,-3.71 h -0.01 l -1.21,3.71 h -1.1 z"
           id="path40"
           inkscape:connector-curvature="0"
           style="fill:#005192" /><path
           class="st1"
           d="m 143.94,160.01 h 1.02 v 4.84 h -1.02 z"
           id="path42"
           inkscape:connector-curvature="0"
           style="fill:#005192" /><path
           class="st1"
           d="m 148.34,160.01 h 3.06 c 0.31,0 0.57,0.03 0.78,0.1 0.21,0.07 0.38,0.16 0.5,0.27 0.13,0.12 0.22,0.26 0.27,0.42 0.06,0.16 0.08,0.33 0.08,0.53 0,0.32 -0.08,0.57 -0.23,0.76 -0.15,0.19 -0.34,0.33 -0.57,0.4 v 0.01 c 0.14,0.03 0.26,0.09 0.35,0.16 0.09,0.07 0.17,0.17 0.22,0.28 0.05,0.11 0.09,0.24 0.11,0.39 0.02,0.15 0.03,0.31 0.03,0.48 0,0.06 0,0.13 0,0.22 0,0.09 0.01,0.18 0.02,0.28 0.01,0.1 0.03,0.19 0.06,0.29 0.03,0.1 0.06,0.18 0.11,0.24 h -1.1 c -0.04,-0.07 -0.06,-0.16 -0.09,-0.28 -0.02,-0.12 -0.03,-0.27 -0.03,-0.45 0,-0.17 -0.01,-0.33 -0.03,-0.47 -0.02,-0.15 -0.06,-0.27 -0.12,-0.37 -0.06,-0.1 -0.14,-0.19 -0.25,-0.24 -0.11,-0.06 -0.26,-0.09 -0.44,-0.09 h -1.73 v 1.91 h -1.02 v -4.84 z m 2.77,2.17 c 0.29,0 0.5,-0.05 0.65,-0.15 0.15,-0.1 0.22,-0.29 0.22,-0.56 0,-0.26 -0.08,-0.44 -0.23,-0.54 -0.15,-0.1 -0.37,-0.16 -0.64,-0.16 h -1.75 v 1.41 z"
           id="path44"
           inkscape:connector-curvature="0"
           style="fill:#005192" /><path
           class="st1"
           d="m 160.81,160.01 h 1.02 v 4.04 h 2.94 v 0.8 h -3.96 z"
           id="path46"
           inkscape:connector-curvature="0"
           style="fill:#005192" /><path
           class="st1"
           d="m 167.69,160.01 h 4.2 v 0.76 h -3.18 v 1.22 h 3.06 v 0.76 h -3.06 v 1.34 h 3.24 v 0.76 h -4.25 v -4.84 z"
           id="path48"
           inkscape:connector-curvature="0"
           style="fill:#005192" /><path
           class="st1"
           d="m 175.12,160.01 h 3.2 c 0.28,0 0.5,0.03 0.68,0.1 0.18,0.07 0.32,0.16 0.43,0.27 0.1,0.11 0.18,0.24 0.22,0.39 0.04,0.14 0.06,0.29 0.06,0.45 0,0.17 -0.02,0.32 -0.07,0.43 -0.05,0.12 -0.1,0.21 -0.17,0.29 -0.07,0.07 -0.14,0.13 -0.21,0.18 -0.08,0.04 -0.15,0.08 -0.21,0.12 0.09,0.03 0.19,0.07 0.29,0.12 0.1,0.05 0.2,0.12 0.28,0.22 0.09,0.09 0.16,0.21 0.22,0.35 0.06,0.14 0.09,0.31 0.09,0.51 0,0.13 -0.03,0.29 -0.07,0.45 -0.05,0.16 -0.14,0.32 -0.26,0.46 -0.12,0.14 -0.29,0.26 -0.5,0.36 -0.21,0.1 -0.48,0.15 -0.81,0.15 h -3.16 v -4.85 z m 1.02,1.97 h 1.9 c 0.07,0 0.15,-0.01 0.22,-0.02 0.08,-0.01 0.15,-0.04 0.21,-0.09 0.06,-0.04 0.12,-0.1 0.16,-0.19 0.04,-0.08 0.06,-0.19 0.06,-0.33 0,-0.2 -0.06,-0.35 -0.19,-0.45 -0.13,-0.1 -0.34,-0.14 -0.64,-0.14 h -1.72 z m 0,2.11 h 1.82 c 0.11,0 0.22,-0.01 0.33,-0.02 0.11,-0.01 0.21,-0.05 0.3,-0.1 0.09,-0.05 0.15,-0.12 0.21,-0.21 0.05,-0.09 0.08,-0.22 0.08,-0.37 0,-0.23 -0.07,-0.4 -0.21,-0.52 -0.14,-0.11 -0.32,-0.17 -0.55,-0.17 h -1.97 v 1.39 z"
           id="path50"
           inkscape:connector-curvature="0"
           style="fill:#005192" /><path
           class="st1"
           d="m 183.12,160.01 h 4.2 v 0.76 h -3.18 v 1.22 h 3.05 v 0.76 h -3.05 v 1.34 h 3.24 v 0.76 h -4.25 v -4.84 z"
           id="path52"
           inkscape:connector-curvature="0"
           style="fill:#005192" /><path
           class="st1"
           d="m 190.55,160.01 h 1.16 l 2.88,3.63 h 0.01 v -3.63 h 0.98 v 4.84 h -1.15 l -2.9,-3.63 h -0.01 v 3.63 h -0.97 z"
           id="path54"
           inkscape:connector-curvature="0"
           style="fill:#005192" /><path
           class="st1"
           d="m 203.69,160.01 h 4.02 v 0.76 h -3.01 v 1.22 h 2.85 v 0.76 h -2.85 v 2.1 h -1.01 z"
           id="path56"
           inkscape:connector-curvature="0"
           style="fill:#005192" /><path
           class="st1"
           d="m 213.29,164.98 c -0.51,0 -0.95,-0.07 -1.31,-0.21 -0.36,-0.14 -0.66,-0.32 -0.88,-0.56 -0.23,-0.23 -0.39,-0.51 -0.5,-0.82 -0.1,-0.31 -0.16,-0.63 -0.16,-0.97 0,-0.34 0.05,-0.66 0.16,-0.97 0.1,-0.31 0.27,-0.58 0.5,-0.82 0.23,-0.23 0.52,-0.42 0.88,-0.56 0.36,-0.14 0.8,-0.21 1.31,-0.21 0.51,0 0.95,0.07 1.31,0.21 0.36,0.14 0.65,0.32 0.88,0.56 0.23,0.23 0.39,0.51 0.5,0.82 0.1,0.31 0.16,0.63 0.16,0.97 0,0.34 -0.05,0.66 -0.16,0.97 -0.1,0.31 -0.27,0.58 -0.5,0.82 -0.23,0.24 -0.52,0.42 -0.88,0.56 -0.36,0.14 -0.8,0.21 -1.31,0.21 z m 0,-0.76 c 0.28,0 0.54,-0.04 0.76,-0.13 0.22,-0.09 0.41,-0.21 0.56,-0.37 0.15,-0.16 0.27,-0.34 0.35,-0.56 0.08,-0.22 0.12,-0.46 0.12,-0.73 0,-0.26 -0.04,-0.5 -0.12,-0.73 -0.08,-0.22 -0.19,-0.41 -0.35,-0.57 -0.15,-0.16 -0.34,-0.28 -0.56,-0.37 -0.22,-0.09 -0.47,-0.13 -0.76,-0.13 -0.28,0 -0.54,0.04 -0.76,0.13 -0.22,0.09 -0.41,0.21 -0.56,0.37 -0.15,0.16 -0.27,0.35 -0.35,0.57 -0.08,0.22 -0.12,0.46 -0.12,0.73 0,0.27 0.04,0.51 0.12,0.73 0.08,0.22 0.2,0.41 0.35,0.56 0.15,0.16 0.34,0.28 0.56,0.37 0.22,0.09 0.48,0.13 0.76,0.13 z"
           id="path58"
           inkscape:connector-curvature="0"
           style="fill:#005192" /><path
           class="st1"
           d="m 221.85,164.98 c -0.51,0 -0.95,-0.07 -1.31,-0.21 -0.36,-0.14 -0.66,-0.32 -0.88,-0.56 -0.23,-0.23 -0.39,-0.51 -0.5,-0.82 -0.1,-0.31 -0.16,-0.63 -0.16,-0.97 0,-0.34 0.05,-0.66 0.16,-0.97 0.1,-0.31 0.27,-0.58 0.5,-0.82 0.23,-0.23 0.52,-0.42 0.88,-0.56 0.36,-0.14 0.8,-0.21 1.31,-0.21 0.51,0 0.95,0.07 1.31,0.21 0.36,0.14 0.66,0.32 0.88,0.56 0.23,0.23 0.39,0.51 0.5,0.82 0.1,0.31 0.15,0.63 0.15,0.97 0,0.34 -0.05,0.66 -0.15,0.97 -0.1,0.31 -0.27,0.58 -0.5,0.82 -0.23,0.24 -0.52,0.42 -0.88,0.56 -0.37,0.14 -0.8,0.21 -1.31,0.21 z m 0,-0.76 c 0.28,0 0.54,-0.04 0.76,-0.13 0.22,-0.09 0.41,-0.21 0.56,-0.37 0.15,-0.16 0.27,-0.34 0.35,-0.56 0.08,-0.22 0.12,-0.46 0.12,-0.73 0,-0.26 -0.04,-0.5 -0.12,-0.73 -0.08,-0.22 -0.2,-0.41 -0.35,-0.57 -0.15,-0.16 -0.34,-0.28 -0.56,-0.37 -0.22,-0.09 -0.47,-0.13 -0.76,-0.13 -0.29,0 -0.54,0.04 -0.76,0.13 -0.22,0.09 -0.41,0.21 -0.56,0.37 -0.15,0.16 -0.27,0.35 -0.35,0.57 -0.08,0.22 -0.12,0.46 -0.12,0.73 0,0.27 0.04,0.51 0.12,0.73 0.08,0.22 0.2,0.41 0.35,0.56 0.15,0.16 0.34,0.28 0.56,0.37 0.22,0.09 0.47,0.13 0.76,0.13 z"
           id="path60"
           inkscape:connector-curvature="0"
           style="fill:#005192" /><path
           class="st1"
           d="m 227.82,160.01 h 2.61 c 0.47,0 0.86,0.06 1.17,0.19 0.3,0.13 0.55,0.3 0.73,0.53 0.18,0.22 0.3,0.49 0.37,0.79 0.07,0.3 0.1,0.62 0.1,0.96 0,0.26 -0.03,0.53 -0.1,0.81 -0.06,0.28 -0.18,0.54 -0.34,0.77 -0.16,0.23 -0.38,0.42 -0.65,0.57 -0.27,0.15 -0.61,0.22 -1.03,0.22 h -2.85 v -4.84 z m 1.02,4.08 h 1.43 c 0.18,0 0.36,-0.02 0.54,-0.06 0.18,-0.04 0.34,-0.12 0.49,-0.24 0.14,-0.12 0.26,-0.29 0.35,-0.51 0.09,-0.22 0.13,-0.5 0.13,-0.86 0,-0.39 -0.06,-0.7 -0.17,-0.92 -0.11,-0.22 -0.24,-0.39 -0.4,-0.5 -0.16,-0.11 -0.33,-0.18 -0.51,-0.2 -0.18,-0.03 -0.34,-0.04 -0.48,-0.04 h -1.37 v 3.33 z"
           id="path62"
           inkscape:connector-curvature="0"
           style="fill:#005192" /><path
           class="st1"
           d="m 235.75,161.37 c 0,-0.27 0.05,-0.5 0.17,-0.69 0.11,-0.19 0.26,-0.34 0.46,-0.46 0.19,-0.12 0.42,-0.21 0.68,-0.26 0.26,-0.05 0.54,-0.08 0.83,-0.08 0.12,0 0.26,0.01 0.42,0.02 0.16,0.01 0.32,0.04 0.49,0.07 0.17,0.04 0.33,0.09 0.49,0.16 0.16,0.07 0.31,0.16 0.45,0.27 0.13,0.11 0.25,0.25 0.34,0.42 0.09,0.17 0.15,0.37 0.17,0.6 h -1.1 c -0.01,-0.09 -0.04,-0.19 -0.08,-0.28 -0.05,-0.09 -0.12,-0.18 -0.22,-0.25 -0.1,-0.07 -0.22,-0.13 -0.37,-0.18 -0.15,-0.04 -0.33,-0.07 -0.54,-0.07 -0.34,0 -0.61,0.05 -0.82,0.16 -0.21,0.11 -0.31,0.27 -0.31,0.5 0,0.14 0.05,0.26 0.16,0.34 0.1,0.08 0.24,0.14 0.41,0.18 0.17,0.05 0.36,0.08 0.58,0.1 0.21,0.03 0.43,0.05 0.66,0.09 0.23,0.03 0.44,0.07 0.66,0.13 0.21,0.05 0.41,0.13 0.58,0.23 0.17,0.1 0.31,0.24 0.41,0.41 0.1,0.17 0.16,0.38 0.16,0.64 0,0.31 -0.07,0.57 -0.22,0.77 -0.14,0.2 -0.33,0.36 -0.56,0.48 -0.23,0.12 -0.48,0.2 -0.75,0.25 -0.27,0.05 -0.54,0.07 -0.8,0.07 -0.43,0 -0.81,-0.04 -1.12,-0.12 -0.31,-0.08 -0.56,-0.2 -0.76,-0.34 -0.2,-0.15 -0.34,-0.33 -0.43,-0.54 -0.09,-0.21 -0.14,-0.44 -0.15,-0.69 h 1.1 c 0.01,0.33 0.14,0.56 0.39,0.71 0.24,0.15 0.58,0.23 1,0.23 0.15,0 0.3,-0.01 0.45,-0.04 0.14,-0.02 0.27,-0.07 0.38,-0.12 0.11,-0.06 0.2,-0.13 0.26,-0.22 0.07,-0.09 0.1,-0.2 0.1,-0.33 0,-0.15 -0.05,-0.27 -0.15,-0.36 -0.1,-0.09 -0.24,-0.16 -0.4,-0.21 -0.17,-0.05 -0.36,-0.09 -0.57,-0.12 -0.21,-0.03 -0.43,-0.06 -0.65,-0.1 -0.22,-0.03 -0.44,-0.08 -0.65,-0.13 -0.21,-0.05 -0.4,-0.13 -0.57,-0.23 -0.17,-0.1 -0.3,-0.23 -0.4,-0.39 -0.13,-0.17 -0.18,-0.37 -0.18,-0.62 z"
           id="path64"
           inkscape:connector-curvature="0"
           style="fill:#005192" /><path
           class="st1"
           d="m 243.47,160.01 h 4.2 v 0.76 h -3.18 v 1.22 h 3.05 v 0.76 h -3.05 v 1.34 h 3.24 v 0.76 h -4.25 v -4.84 z"
           id="path66"
           inkscape:connector-curvature="0"
           style="fill:#005192" /><path
           class="st1"
           d="m 250.9,160.01 h 3.06 c 0.31,0 0.57,0.03 0.77,0.1 0.21,0.07 0.38,0.16 0.5,0.27 0.13,0.12 0.22,0.26 0.27,0.42 0.05,0.16 0.08,0.33 0.08,0.53 0,0.32 -0.08,0.57 -0.23,0.76 -0.15,0.19 -0.34,0.33 -0.57,0.4 v 0.01 c 0.14,0.03 0.26,0.09 0.35,0.16 0.09,0.07 0.17,0.17 0.22,0.28 0.05,0.11 0.09,0.24 0.11,0.39 0.02,0.15 0.03,0.31 0.03,0.48 0,0.06 0,0.13 0,0.22 0,0.09 0.01,0.18 0.02,0.28 0.01,0.1 0.03,0.19 0.06,0.29 0.03,0.1 0.06,0.18 0.11,0.24 h -1.1 c -0.04,-0.07 -0.07,-0.16 -0.09,-0.28 -0.02,-0.12 -0.03,-0.27 -0.03,-0.45 0,-0.17 -0.01,-0.33 -0.03,-0.47 -0.02,-0.15 -0.06,-0.27 -0.11,-0.37 -0.06,-0.1 -0.14,-0.19 -0.25,-0.24 -0.11,-0.06 -0.26,-0.09 -0.44,-0.09 h -1.73 v 1.91 h -1.02 v -4.84 z m 2.77,2.17 c 0.28,0 0.5,-0.05 0.65,-0.15 0.15,-0.1 0.22,-0.29 0.22,-0.56 0,-0.26 -0.08,-0.44 -0.23,-0.54 -0.15,-0.1 -0.37,-0.16 -0.64,-0.16 h -1.75 v 1.41 z"
           id="path68"
           inkscape:connector-curvature="0"
           style="fill:#005192" /><path
           class="st1"
           d="m 258.17,160.01 h 1.14 l 1.58,3.87 1.54,-3.87 h 1.1 l -2.13,4.84 h -1.08 z"
           id="path70"
           inkscape:connector-curvature="0"
           style="fill:#005192" /><path
           class="st1"
           d="m 266.37,160.01 h 1.02 v 4.84 h -1.02 z"
           id="path72"
           inkscape:connector-curvature="0"
           style="fill:#005192" /><path
           class="st1"
           d="m 274.77,161.8 c -0.05,-0.36 -0.22,-0.65 -0.49,-0.86 -0.28,-0.2 -0.63,-0.31 -1.06,-0.31 -0.23,0 -0.45,0.04 -0.65,0.12 -0.2,0.08 -0.37,0.2 -0.52,0.35 -0.15,0.16 -0.26,0.35 -0.34,0.59 -0.08,0.23 -0.12,0.51 -0.12,0.83 0,0.25 0.04,0.48 0.13,0.69 0.08,0.21 0.2,0.39 0.35,0.54 0.15,0.15 0.33,0.27 0.53,0.35 0.21,0.08 0.44,0.13 0.69,0.13 0.26,0 0.48,-0.04 0.66,-0.12 0.18,-0.08 0.33,-0.18 0.44,-0.3 0.12,-0.12 0.2,-0.25 0.26,-0.4 0.06,-0.14 0.1,-0.28 0.12,-0.41 h 1.1 c -0.04,0.24 -0.11,0.48 -0.21,0.72 -0.11,0.24 -0.27,0.45 -0.48,0.64 -0.21,0.19 -0.49,0.34 -0.82,0.46 -0.34,0.12 -0.75,0.18 -1.25,0.18 -0.44,0 -0.82,-0.07 -1.14,-0.21 -0.32,-0.14 -0.59,-0.32 -0.81,-0.56 -0.22,-0.23 -0.37,-0.51 -0.48,-0.82 -0.1,-0.31 -0.16,-0.63 -0.16,-0.97 0,-0.34 0.05,-0.66 0.16,-0.97 0.11,-0.31 0.26,-0.58 0.48,-0.82 0.22,-0.23 0.5,-0.42 0.84,-0.56 0.34,-0.14 0.75,-0.21 1.22,-0.21 0.42,0 0.78,0.05 1.1,0.15 0.32,0.1 0.59,0.24 0.81,0.42 0.22,0.17 0.39,0.38 0.51,0.61 0.12,0.23 0.2,0.48 0.22,0.74 z"
           id="path74"
           inkscape:connector-curvature="0"
           style="fill:#005192" /><path
           class="st1"
           d="m 279.03,160.01 h 4.2 v 0.76 h -3.18 v 1.22 h 3.05 v 0.76 h -3.05 v 1.34 h 3.24 v 0.76 h -4.25 v -4.84 z"
           id="path76"
           inkscape:connector-curvature="0"
           style="fill:#005192" /></g></g></g><g
     id="g84"
     transform="translate(0,-211.95299)" /><g
     id="g86"
     transform="translate(0,-211.95299)" /><g
     id="g88"
     transform="translate(0,-211.95299)" /><g
     id="g90"
     transform="translate(0,-211.95299)" /><g
     id="g92"
     transform="translate(0,-211.95299)" /><g
     id="g94"
     transform="translate(0,-211.95299)" /></svg>